<svg xmlns="http://www.w3.org/2000/svg" viewBox="0 0 99.8 7.66"><defs><style>.cls-1{fill:#e03323;}.cls-2{fill:#1c1c1c;}</style></defs><g id="Camada_2" data-name="Camada 2"><g id="Camada_1-2" data-name="Camada 1"><path class="cls-1" d="M.29,8.91,3.78,1.57h1.9L9.14,8.91H6.87L5.13,5.25l-.22-.49c-.06-.15-.12-.29-.16-.42s-.09-.26-.14-.4a4.26,4.26,0,0,1-.11-.42h.42c0,.16-.08.3-.12.44l-.15.4c-.05.14-.11.27-.17.42s-.14.3-.22.47L2.53,8.91ZM2,7.9l.68-1.55H6.81L7.18,7.9Z" transform="translate(-0.29 -1.36)"/><path class="cls-1" d="M10.91,8.91V1.57h4a4.1,4.1,0,0,1,1.63.29,2.16,2.16,0,0,1,1,.82A2.29,2.29,0,0,1,17.87,4a2.35,2.35,0,0,1-.37,1.33,2.57,2.57,0,0,1-1,.9A3.3,3.3,0,0,1,15,6.51H13v2.4Zm2.11-4h1.71a1.14,1.14,0,0,0,.46-.09.71.71,0,0,0,.32-.27.79.79,0,0,0,.12-.45.73.73,0,0,0-.12-.43.71.71,0,0,0-.33-.26,1.21,1.21,0,0,0-.48-.08H13Zm2.69,4L13.39,5.6l2.35-.26,2.53,3.57Z" transform="translate(-0.29 -1.36)"/><path class="cls-1" d="M24.73,9a5.74,5.74,0,0,1-1.85-.29,4.37,4.37,0,0,1-1.44-.8,3.49,3.49,0,0,1-1.27-2.74,3.49,3.49,0,0,1,.33-1.52,3.73,3.73,0,0,1,.95-1.22,4.37,4.37,0,0,1,1.44-.8,5.57,5.57,0,0,1,1.83-.29,5.68,5.68,0,0,1,1.84.29,4.58,4.58,0,0,1,1.44.8,3.58,3.58,0,0,1,.94,1.22,3.32,3.32,0,0,1,.34,1.51,3.44,3.44,0,0,1-.34,1.54A3.54,3.54,0,0,1,28,7.93a4.58,4.58,0,0,1-1.44.8A5.66,5.66,0,0,1,24.73,9Zm0-2.1a2.84,2.84,0,0,0,.9-.13,2.23,2.23,0,0,0,.72-.37,1.61,1.61,0,0,0,.46-.55A1.32,1.32,0,0,0,27,5.19a1.35,1.35,0,0,0-.17-.68A1.71,1.71,0,0,0,26.34,4a2.23,2.23,0,0,0-.72-.37,3.18,3.18,0,0,0-1.8,0A2.56,2.56,0,0,0,23.1,4a1.59,1.59,0,0,0-.46.55,1.47,1.47,0,0,0-.17.69,1.5,1.5,0,0,0,.17.69,1.59,1.59,0,0,0,.46.55,2.56,2.56,0,0,0,.72.36A2.84,2.84,0,0,0,24.72,6.92Z" transform="translate(-0.29 -1.36)"/><path class="cls-1" d="M31.77,8.91V1.57h2.1L38.3,6.24l-.4-.15c0-.3-.08-.58-.1-.81s0-.45-.06-.64,0-.38,0-.55,0-.36,0-.54v-2h2.18V8.91H37.74L33,3.77l.77.26c0,.13,0,.26.07.38l.06.41c0,.15,0,.32.05.51s0,.41,0,.67,0,.56,0,.91v2Z" transform="translate(-0.29 -1.36)"/><path class="cls-1" d="M42.81,8.91V1.57h3.84a5.19,5.19,0,0,1,1.78.29,3.93,3.93,0,0,1,1.35.8,3.62,3.62,0,0,1,.86,1.17,3.43,3.43,0,0,1,.3,1.41,3.38,3.38,0,0,1-.3,1.42,3.62,3.62,0,0,1-.86,1.17,4.06,4.06,0,0,1-1.36.79,4.94,4.94,0,0,1-1.77.29Zm2.26-1.39L44.68,7h1.91a2.35,2.35,0,0,0,.88-.15,1.66,1.66,0,0,0,.63-.4,1.56,1.56,0,0,0,.38-.55,1.78,1.78,0,0,0,.13-.64,1.73,1.73,0,0,0-.13-.63,1.59,1.59,0,0,0-.38-.56,2,2,0,0,0-.63-.4,2.35,2.35,0,0,0-.88-.15H44.65L45.07,3Z" transform="translate(-0.29 -1.36)"/><path class="cls-2" d="M57.36,9a5,5,0,0,1-1.67-.27A4.49,4.49,0,0,1,54.33,8a3.26,3.26,0,0,1-.93-1.18,3.62,3.62,0,0,1-.33-1.57,3.38,3.38,0,0,1,.33-1.48,3.67,3.67,0,0,1,.92-1.19,4,4,0,0,1,1.37-.78,4.86,4.86,0,0,1,1.68-.28,5.21,5.21,0,0,1,1.33.16,4.93,4.93,0,0,1,1.12.44,2.63,2.63,0,0,1,.78.6l-.51.59a3.93,3.93,0,0,0-.77-.5,4.72,4.72,0,0,0-.93-.36,3.89,3.89,0,0,0-1-.13A4,4,0,0,0,56,2.54a3.46,3.46,0,0,0-1.1.61,2.74,2.74,0,0,0-.73.93,2.71,2.71,0,0,0-.26,1.17,2.79,2.79,0,0,0,.27,1.24,2.74,2.74,0,0,0,.75.94A3.27,3.27,0,0,0,56.07,8a4.45,4.45,0,0,0,1.35.2,4.22,4.22,0,0,0,1.19-.16,3.45,3.45,0,0,0,1-.43A2.23,2.23,0,0,0,60.25,7a1.42,1.42,0,0,0,.22-.76V5.9l.19.27H57.41v-.8h3.91a1.5,1.5,0,0,0,0,.2c0,.07,0,.13,0,.18v.14a2.77,2.77,0,0,1-.3,1.28,2.85,2.85,0,0,1-.84,1,4.31,4.31,0,0,1-1.27.63A5.34,5.34,0,0,1,57.36,9Z" transform="translate(-0.29 -1.36)"/><path class="cls-2" d="M64.06,8.91V1.57h3.72a2.33,2.33,0,0,1,1.18.3,2.28,2.28,0,0,1,.84.79,2.07,2.07,0,0,1,.32,1.13A2,2,0,0,1,69.79,5a2.37,2.37,0,0,1-.88.81,2.53,2.53,0,0,1-1.24.3H64.88V8.91Zm.82-3.65h2.74a1.79,1.79,0,0,0,.84-.19A1.54,1.54,0,0,0,69,4.55a1.46,1.46,0,0,0,.21-.75A1.26,1.26,0,0,0,69,3.07a1.47,1.47,0,0,0-.59-.51,1.79,1.79,0,0,0-.84-.19H64.88ZM69.5,8.91,67.2,5.68,68,5.42,70.5,8.91Z" transform="translate(-0.29 -1.36)"/><path class="cls-2" d="M76.88,9a5,5,0,0,1-1.68-.28,4.14,4.14,0,0,1-1.33-.8A3.55,3.55,0,0,1,73,6.75a3.71,3.71,0,0,1,0-3,3.59,3.59,0,0,1,.88-1.2,4.14,4.14,0,0,1,1.33-.8,4.78,4.78,0,0,1,1.68-.28,4.83,4.83,0,0,1,1.69.28,4.3,4.3,0,0,1,1.33.79,3.6,3.6,0,0,1,1.2,2.69,3.56,3.56,0,0,1-1.2,2.68,4.14,4.14,0,0,1-1.33.8A5.08,5.08,0,0,1,76.88,9Zm0-.81A3.9,3.9,0,0,0,78.23,8a3.23,3.23,0,0,0,1.07-.62,2.82,2.82,0,0,0,.7-.94,2.85,2.85,0,0,0,.25-1.17A2.9,2.9,0,0,0,80,4.08a2.78,2.78,0,0,0-.7-.93,3.26,3.26,0,0,0-1.07-.63,4.25,4.25,0,0,0-2.7,0,3.16,3.16,0,0,0-1.07.63,2.81,2.81,0,0,0-.93,2.11,2.7,2.7,0,0,0,.25,1.17,2.77,2.77,0,0,0,.68.94A3.14,3.14,0,0,0,75.53,8,3.9,3.9,0,0,0,76.88,8.21Z" transform="translate(-0.29 -1.36)"/><path class="cls-2" d="M87.25,9a3.53,3.53,0,0,1-1.78-.44,3.29,3.29,0,0,1-1.19-1.21,3.56,3.56,0,0,1-.43-1.74v-4h.82v4A2.66,2.66,0,0,0,85,6.9a2.35,2.35,0,0,0,.92.93,2.55,2.55,0,0,0,1.32.34,2.65,2.65,0,0,0,1.37-.34,2.4,2.4,0,0,0,.94-.93,2.75,2.75,0,0,0,.33-1.35v-4h.79v4a3.45,3.45,0,0,1-.43,1.74,3.24,3.24,0,0,1-1.2,1.21A3.58,3.58,0,0,1,87.25,9Z" transform="translate(-0.29 -1.36)"/><path class="cls-2" d="M94.05,8.91V1.57h3.8A2.31,2.31,0,0,1,99,1.86a2,2,0,0,1,.8.78,2.1,2.1,0,0,1,.3,1.11A2.29,2.29,0,0,1,99.78,5a2.26,2.26,0,0,1-.84.84,2.34,2.34,0,0,1-1.19.3H94.86V8.91Zm.81-3.61h2.87A1.47,1.47,0,0,0,99,4.54a1.72,1.72,0,0,0,.19-.8A1.36,1.36,0,0,0,99,3a1.32,1.32,0,0,0-.53-.49,1.59,1.59,0,0,0-.77-.18H94.86Z" transform="translate(-0.29 -1.36)"/></g></g></svg>